<mxfile host="app.diagrams.net" modified="2021-09-08T03:29:33.714Z" agent="5.0 (Macintosh; Intel Mac OS X 10_15_7) AppleWebKit/537.36 (KHTML, like Gecko) Chrome/92.0.4515.159 Safari/537.36" etag="ZKOIYN-iPh5vr1Pah1R7" version="14.9.9" type="github">
  <diagram id="Ca0wWQB45hih6p6KXmwm" name="Page-1">
    <mxGraphModel dx="1186" dy="707" grid="1" gridSize="10" guides="1" tooltips="1" connect="1" arrows="1" fold="1" page="1" pageScale="1" pageWidth="827" pageHeight="1169" math="0" shadow="0">
      <root>
        <mxCell id="0" />
        <mxCell id="1" parent="0" />
        <mxCell id="K3l5lYaKbIzm5yTDXVPF-6" value="" style="edgeStyle=orthogonalEdgeStyle;rounded=0;orthogonalLoop=1;jettySize=auto;html=1;fontSize=18;fontFamily=Times New Roman;" edge="1" parent="1" source="K3l5lYaKbIzm5yTDXVPF-1" target="K3l5lYaKbIzm5yTDXVPF-2">
          <mxGeometry relative="1" as="geometry" />
        </mxCell>
        <mxCell id="K3l5lYaKbIzm5yTDXVPF-1" value="query" style="ellipse;whiteSpace=wrap;html=1;fontSize=18;fontFamily=Times New Roman;" vertex="1" parent="1">
          <mxGeometry x="70" y="455" width="110" height="70" as="geometry" />
        </mxCell>
        <mxCell id="K3l5lYaKbIzm5yTDXVPF-7" value="" style="edgeStyle=orthogonalEdgeStyle;rounded=0;orthogonalLoop=1;jettySize=auto;html=1;fontSize=18;fontFamily=Times New Roman;" edge="1" parent="1" source="K3l5lYaKbIzm5yTDXVPF-2" target="K3l5lYaKbIzm5yTDXVPF-3">
          <mxGeometry relative="1" as="geometry" />
        </mxCell>
        <mxCell id="K3l5lYaKbIzm5yTDXVPF-2" value="关键词触发" style="rounded=1;whiteSpace=wrap;html=1;fontSize=18;fontFamily=Times New Roman;" vertex="1" parent="1">
          <mxGeometry x="270" y="460" width="120" height="60" as="geometry" />
        </mxCell>
        <mxCell id="K3l5lYaKbIzm5yTDXVPF-8" value="" style="edgeStyle=orthogonalEdgeStyle;rounded=0;orthogonalLoop=1;jettySize=auto;html=1;fontSize=18;fontFamily=Times New Roman;" edge="1" parent="1" source="K3l5lYaKbIzm5yTDXVPF-3" target="K3l5lYaKbIzm5yTDXVPF-4">
          <mxGeometry relative="1" as="geometry" />
        </mxCell>
        <mxCell id="K3l5lYaKbIzm5yTDXVPF-3" value="广告触发" style="rounded=1;whiteSpace=wrap;html=1;fontSize=18;fontFamily=Times New Roman;" vertex="1" parent="1">
          <mxGeometry x="480" y="460" width="120" height="60" as="geometry" />
        </mxCell>
        <mxCell id="K3l5lYaKbIzm5yTDXVPF-9" value="" style="edgeStyle=orthogonalEdgeStyle;rounded=0;orthogonalLoop=1;jettySize=auto;html=1;fontSize=18;fontFamily=Times New Roman;" edge="1" parent="1" source="K3l5lYaKbIzm5yTDXVPF-4" target="K3l5lYaKbIzm5yTDXVPF-5">
          <mxGeometry relative="1" as="geometry" />
        </mxCell>
        <mxCell id="K3l5lYaKbIzm5yTDXVPF-4" value="CTR预估" style="rounded=1;whiteSpace=wrap;html=1;fontSize=18;fontFamily=Times New Roman;" vertex="1" parent="1">
          <mxGeometry x="690" y="460" width="120" height="60" as="geometry" />
        </mxCell>
        <mxCell id="K3l5lYaKbIzm5yTDXVPF-5" value="排序、计价、展现" style="rounded=1;whiteSpace=wrap;html=1;fontSize=18;fontFamily=Times New Roman;" vertex="1" parent="1">
          <mxGeometry x="900" y="460" width="160" height="60" as="geometry" />
        </mxCell>
      </root>
    </mxGraphModel>
  </diagram>
</mxfile>
